<?xml version="1.0" encoding="UTF-8" standalone="no"?>
<svg
   xmlns:dc="http://purl.org/dc/elements/1.1/"
   xmlns:cc="http://creativecommons.org/ns#"
   xmlns:rdf="http://www.w3.org/1999/02/22-rdf-syntax-ns#"
   xmlns:svg="http://www.w3.org/2000/svg"
   xmlns="http://www.w3.org/2000/svg"
   xmlns:sodipodi="http://sodipodi.sourceforge.net/DTD/sodipodi-0.dtd"
   xmlns:inkscape="http://www.inkscape.org/namespaces/inkscape"
   inkscape:version="1.0beta1 (32d4812, 2019-09-19)"
   height="48.61002"
   width="28"
   sodipodi:docname="Camera.svg"
   id="svg847"
   xml:space="preserve"
   viewBox="0 0 28 48.61002"
   y="0px"
   x="0px"
   version="1.1">
  <style
     id="style855"></style>
  <metadata
     id="metadata853">
    <rdf:RDF>
      <cc:Work
         rdf:about="">
        <dc:format>image/svg+xml</dc:format>
        <dc:type
           rdf:resource="http://purl.org/dc/dcmitype/StillImage" />
        <dc:title></dc:title>
      </cc:Work>
    </rdf:RDF>
  </metadata>
  <defs
     id="defs851" />
  <sodipodi:namedview
     inkscape:current-layer="svg847"
     inkscape:window-maximized="0"
     inkscape:window-y="23"
     inkscape:window-x="0"
     inkscape:cy="100.4298"
     inkscape:cx="150.53239"
     inkscape:zoom="0.91804279"
     showgrid="false"
     id="namedview849"
     inkscape:window-height="1209"
     inkscape:window-width="1600"
     inkscape:pageshadow="2"
     inkscape:pageopacity="0"
     guidetolerance="10"
     gridtolerance="10"
     objecttolerance="10"
     borderopacity="1"
     inkscape:document-rotation="0"
     bordercolor="#666666"
     pagecolor="#ffffff" />
  <g
     transform="translate(-2,-4.44)"
     id="g841">
    <path
       inkscape:connector-curvature="0"
       id="path835"
       d="m 26.29,7.04 h -4.7 c -0.47,-1.5 -1.88,-2.6 -3.54,-2.6 h -4.08 c -1.67,0 -3.07,1.1 -3.54,2.6 H 5.73 C 3.67,7.04 2,8.71 2,10.75 v 3.48 h 2.21 5.9 c 1.11,-2.16 3.4,-3.57 5.89,-3.57 2.48,0 4.76,1.41 5.89,3.57 H 27.79 30 V 10.75 C 30,8.71 28.33,7.04 26.29,7.04 Z" />
    <path
       inkscape:connector-curvature="0"
       id="path837"
       d="m 20.44,17.3 c 0,-0.55 -0.1,-1.08 -0.29,-1.56 -0.65,-1.72 -2.31,-2.87 -4.15,-2.87 -1.84,0 -3.49,1.15 -4.14,2.86 0,0.01 -0.01,0.03 -0.01,0.04 -0.19,0.49 -0.28,1 -0.28,1.54 0,2.45 1.99,4.44 4.44,4.44 2.45,0 4.43,-2 4.43,-4.45 z" />
    <path
       inkscape:connector-curvature="0"
       id="path839"
       d="m 22.59,16.44 c 0.04,0.28 0.06,0.57 0.06,0.86 0,3.66 -2.98,6.65 -6.65,6.65 -3.67,0 -6.65,-2.98 -6.65,-6.65 0,-0.29 0.01,-0.58 0.06,-0.86 H 4.21 2 v 7.41 c 0,2.05 1.67,3.71 3.71,3.71 h 20.57 c 2.05,0 3.71,-1.67 3.71,-3.71 v -7.41 h -2.21 z" />
  </g>
  <path
     sodipodi:nodetypes="cccccccccccccccccssscsscc"
     style="opacity:1;stop-opacity:1"
     inkscape:connector-curvature="0"
     id="path857"
     d="m 12.417227,48.011523 c 0.09941,0.100583 0.198945,0.181166 0.308476,0.261807 0.04982,0.03029 0.09965,0.06058 0.15953,0.08093 0.05977,0.04035 0.129589,0.07076 0.199413,0.101166 0.06982,0.03041 0.139764,0.04082 0.209646,0.06123 0.05988,0.02035 0.109764,0.04064 0.169705,0.05099 0.129822,0.03076 0.269762,0.04158 0.399759,0.04233 0.129998,7.6e-4 0.270054,-0.0084 0.400227,-0.03766 0.06006,-0.0096 0.120173,-0.0293 0.170289,-0.04901 0.07012,-0.01959 0.140232,-0.03918 0.210406,-0.06877 0.07017,-0.02959 0.130406,-0.06924 0.20058,-0.09883 0.05018,-0.02971 0.11029,-0.04936 0.160523,-0.08906 0.110466,-0.07936 0.220931,-0.158712 0.311514,-0.258185 l 5.612378,-5.527314 c 0.804659,-0.795314 0.812252,-2.095291 0.01694,-2.89995 -0.795314,-0.804659 -2.095291,-0.812252 -2.89995,-0.01694 l -2.092114,2.067816 0.06331,-15.058628 c 0.0048,-1.129991 -0.903999,-2.171864 -2.033979,-2.178464 -1.129981,-0.0066 -2.063355,1.024526 -2.067957,2.154517 l -0.06136,15.068628 -2.067816,-2.092113 c -0.795314,-0.804659 -2.0952905,-0.812252 -2.8999475,-0.01694 -0.804659,0.795313 -0.812252,2.095291 -0.016938,2.89995 z" />
</svg>
